<svg id="Layer_1" data-name="Layer 1" xmlns="http://www.w3.org/2000/svg" viewBox="0 0 163.44 108.48"><defs><style>.cls-1{fill:white;}</style></defs><title>logo</title><path class="cls-1" d="M285.46,109.27c1.75,0,3.7,1.15,5.2,1.81a53.88,53.88,0,0,0,12.17,3.24c7.4,1.31,15.41,2,22.53-.94,6.08-2.49,10.31-7.78,12.41-13.9s3.08-14.37-.71-20.21a10.09,10.09,0,0,0-3.87-3.66c-1.48-.72-3.75-0.86-4.58-2.51-0.69-1.38-.14-3.15,0-4.59a19,19,0,0,0-.68-6,29.63,29.63,0,0,0-12-16.88,37.36,37.36,0,0,0-15.54-5.79c-2-.25-4.05-0.24-5.74-1.39-1.37-.93-2.27-2.44-3.38-3.64a19.88,19.88,0,0,0-4.61-3.7,27.7,27.7,0,0,0-11-3.34,58.7,58.7,0,0,0-12.64.5,24.77,24.77,0,0,1-3.64.11c-2.81-.1-5.59-0.57-8.42-0.84-7.86-.74-16.11-0.12-23.37,3.17-3.29,1.49-6.37,3.46-10,4-4,.56-8,0.79-11.77,2.37-10,4.19-17,15.49-16.86,26.24,0,1.85.67,3.95,0,5.74-0.58,1.55-2.08,2.3-3.37,3.17a21.58,21.58,0,0,0-7.09,7.95c-3.36,6.51-2.66,14.41.19,21,1.53,3.53,3.86,6.6,5.84,9.88,2.11,3.48,3.3,7.4,5.22,11a26.3,26.3,0,0,0,15.36,12.77c7.39,2.19,15.4.46,22.21-2.79a53.16,53.16,0,0,0,9.77-6.15c1.31-1,2.53-2.4,4.09-3.05a4,4,0,0,1,2-.29S271.48,129.17,285.46,109.27Zm39.81-3a21.83,21.83,0,0,1-8.74,3c-1.06.1-2.73,0.24-3.42-.78-0.92-1.34.71-3.09,1.49-4.09,1.36-1.74,3.06-3.44,3.71-5.61,0.57-1.91.05-4.95-2.43-5.15-1.76-.15-2.82,1.81-3.5,3.15-1.09,2.15-1.8,4.34-3.83,5.82-7.95,5.79-17.8-.15-22.95-6.63-2.81-3.54-4.63-8.08-8.28-10.9-2.3-1.78-7.45-4.16-10.13-2-5.11,4.18,2.94,7.86,5.13,7.23,7-2,7.24,13.35,3.89,18-5.34,7.47-13.78,10.19-22.6,7.86-9.66-2.55-17.16-9.78-26.19-13.76-3.93-1.73-8.74-3.28-13.1-2.76-1.88.22-4.32,1.06-4.79,3.14s1.55,3.61,3.27,4.36c4.76,2.07,10.2,1.22,15.11,2.71,3.78,1.15,7.4,4.42,6.13,8.74-2.29,7.79-15.36,9.47-22.1,9.18-8.4-.36-16.38-5-18.41-13.66-1.15-4.88.73-8.6,2.07-13.12,0.57-1.92.94-4.08-.1-5.91s-3.29-2.45-4.94-.82-1.22,8.44-4.05,8.38c-2.28,0-3.92-4.31-4.52-6.06-2.25-6.57.09-15.52,6.53-18.86a13,13,0,0,1,12.59.75c3.25,1.92,5.65,6.25,9.33,7.3,4.5,1.27,4.24-3.67,2.79-6.24a15.52,15.52,0,0,0-9.31-7.16c-3.21-.94-9.7,0-10.67-4.12-3.45-14.75,19.88-24.78,31.13-23.14a23,23,0,0,1,17.69,14.09c1.35,3.36.29,6.5-3.81,4.51a32.65,32.65,0,0,0-14.5-3.65c-3,0-11.56.58-10.86,5.33,0.61,4.18,8.23,3.8,11.17,4,5.07,0.35,10.07,1,14.46,3.73a17.37,17.37,0,0,1,8,11.29,32.29,32.29,0,0,1,.47,7.42c-0.07,2.42-.59,5-0.31,7.41,0.2,1.71,1.36,3.4,3.07,2,1.4-1.17,2.11-3.36,2.61-5a30.39,30.39,0,0,0,.8-14.83c-1.27-5.33-4-9.77-4.14-15.41-0.12-5.36.38-10.48-1.9-15.52a19.56,19.56,0,0,0-7.89-9c-1.5-.88-4-2.61-4.12-4,0-.73.58-1.38,2.35-1.79a22.88,22.88,0,0,1,5.73-.13,48.06,48.06,0,0,1,7.81.54,12.81,12.81,0,0,1,9.69,7.4c1.2,2.51,2.35,7.86,6,7.74,4.37-.13,2.51-6.94,1.57-9.23-1-2.54-3.38-7.47,1.07-7.87,3.12-.28,6.63,1.22,9.35,2.53,4.43,2.14,8.83,5.24,11.66,9.34a20.92,20.92,0,0,1,3.73,12.35c-0.1,3.58-1.46,10.29-5.66,11.23-5.06,1.14-6-5.95-5.88-9.34,0.06-2.5.54-11.52-4.43-9.43-4.56,1.92-3.1,10-2.22,13.58a23.46,23.46,0,0,0,5.69,11.05C287,81,294.8,82.9,302.33,82.69c2.25-.06,7.68-0.5,7.61-3.87-0.05-2.78-5-2.55-6.92-2.48-2.51.1-5.42,0.63-7.84-.27-3.07-1.14-1.71-4.31-.39-6.4,2.33-3.69,6.05-6.55,6.33-11.23A12.84,12.84,0,0,0,299.44,52c-0.74-1.5-2.31-4.17-.37-5.42,2.74-1.76,8.52,1.82,10.6,3.28a39.28,39.28,0,0,1,7.19,6.87c2.89,3.4,9.47,11.55,3.52,15.11-1.24.74-3,1.07-3.65,2.49-0.95,2,.9,3.47,2.43,4.33,3.49,2,7.6,2.78,10.67,5.46C337.63,90.87,332.83,101.77,325.27,106.28Z" transform="translate(-176.2 -27.26)"/></svg>
